mtllib tron2.mtl
v -25.1576 -81.475 10.9327
v -25.1666 -159.937 45.4801
v -25.1666 -14.1485 83.6173
v 25.1576 -81.4549 10.9327
v 24.8635 -14.1485 83.6173
v 24.8635 -159.937 45.4801
v 7.50523 127.012 -16.8469
v 7.50523 138.735 -4.37605
v 7.50523 114.79 -4.87535
v 7.50523 127.012 9.07315
v -7.50524 127.012 9.07315
v -7.50524 138.735 -4.37605
v -7.50524 114.79 -5.37455
v -7.50524 127.012 -16.8469
v 46.7111 -17.911 47.6518
v 22.6382 -11.4242 78.0252
v 22.6382 -127.568 47.6518
v -46.7964 -17.911 47.6777
v -22.4262 -127.568 47.6777
v -22.4262 -11.4242 78.051
v 21.2235 -129.802 9.07616
v 21.2235 -141.755 -4.21014
v 21.2235 -118.028 -4.40234
v 21.2235 -129.802 -16.8438
v -21.2235 -129.802 9.07616
v -21.2235 -118.028 -4.40234
v -21.2235 -141.755 -4.21014
v -21.2235 -129.802 -16.8438
v -25.1666 90.7452 57.9898
v -25.1576 34.6283 10.8898
v 24.8635 90.7752 57.9898
v 25.1576 34.6183 10.8998
v 11.1677 87.7607 -5.69395
v 11.1677 127.012 35.6724
v 11.1677 127.012 -43.446
v 11.1677 164.266 -3.69695
v 0.0608336 127.012 -59.2368
v 0.0608336 181.437 -3.60455
v 0.0608336 127.012 51.4632
v -11.1677 127.012 -43.446
v -11.1677 164.266 -3.69695
v -11.1677 127.012 35.6724
v -11.1677 87.7607 -5.19465
v 0.0608336 69.093 -5.70715
v -20.32 66.3883 55.2835
v -20.32 107.165 -4.27975
v -20.32 56.7583 -43.1017
v -20.32 42.8883 27.6098
v -20.2933 126.818 -28.1038
v -20.32 126.804 -43.326
v 20.3467 126.808 -28.1138
v 20.32 126.894 -43.326
v 20.32 107.165 -4.25975
v -40 -129.802 36.8662
v -40 -172.853 9.32219
v 0.386871 -190.359 9.3297
v 0.386871 -129.802 51.4662
v 40 -129.802 36.8662
v 40 -172.853 9.32219
v 40 -89.9047 -17.0899
v 0.386871 -71.67 -17.5835
v -40 -89.9047 -17.0899
v 40 -147.249 -47.2186
v 0.386872 -147.249 -61.8186
v -40 -147.249 -47.2186
v 20.32 126.758 20.6334
v -20.32 126.758 20.6334
v -20.32 126.758 55.2835
v 20.32 126.758 55.2835
v 20.32 66.3883 55.2835
v 20.32 42.8883 27.6098
v 20.32 56.7583 -43.1017
v -14.5304 112.016 56.3947
v 14.5645 112.087 56.5155
v 14.5857 104.972 44.6163
v -14.5091 104.902 44.4947
v 14.5645 -11.4404 91.1367
v 14.5857 -11.4466 77.6616
v -14.5304 -11.5114 91.0159
v -14.5091 -11.5166 77.5339
v 14.5645 -120.523 74.0964
v 14.5857 -114.198 61.18
v -14.5304 -120.594 73.9756
v -14.5091 -114.268 61.0584
v 14.5645 -170.317 47.4562
v 14.5857 -157.251 44.9952
v -14.5304 -170.388 47.3355
v -14.5091 -157.249 44.9963
v -20.32 -105.692 -43.1017
v -20.23 -105.692 62.9698
v -20.32 42.8883 27.6098
v -20.32 56.7583 -43.1017
v 20.32 -105.692 62.9698
v 20.3752 -105.732 -43.0959
#94 vertices
vn -1 4.27264e-005 -0.000163331
vn 0.999985 -0.00139683 0.00533968
vn 0.999991 -0.000211674 0.00424225
vn 1 0 0
vn 0.997429 0.0716642 0
vn 0.75531 -0.165813 0.634045
vn -0.75131 -0.166972 0.638478
vn -0.826333 -0.183645 0.532398
vn 0.940247 -0.340493 0
vn 0 -0.0498348 0.998757
vn -0.000142201 0.237274 0.971443
vn 0 -0.253077 0.967446
vn 0.999981 1.7734e-006 0.00624329
vn 0.999988 0.00118134 0.00483664
vn 0.990945 0.134271 0
vn 0.990649 0.00284428 -0.136403
vn 0.990647 -0.0035605 0.136404
vn 0.989867 -0.141998 0
vn 0 0.0187124 -0.999825
vn 0 1 0
vn 0.839654 0.543121 0
vn 0.81784 0.0150155 -0.57525
vn 0 0.0117394 0.999931
vn 0.81784 -0.0150155 0.57525
vn -0.814914 0.0113439 -0.57947
vn -0.83694 0.547295 0
vn -0.814914 -0.0113439 0.57947
vn -0.99065 -0.00267028 0.136404
vn -0.990637 -0.00568791 0.136402
vn -0.989867 -0.141998 0
vn -0.990637 0.0056879 -0.136401
vn -0.99065 0.00267027 -0.136403
vn -0.990945 0.134271 0
vn -0.856926 -0.51544 0
vn -0.00134086 -0.998199 -0.0599813
vn 0.85939 -0.511321 0
vn -0.999992 0.00348081 0.00175074
vn -0.999998 5.61657e-006 0.00175395
vn 0.000248066 0.999984 0.00565374
vn -0.00221444 0.999982 0.00565805
vn -0.00221447 0.999997 -0.00091632
vn 0.000346875 0.771953 0.635679
vn -6.06014e-007 0.999999 0.00123133
vn -0.325682 0.286866 0.90091
vn -0.390716 -0.901313 0.187016
vn 0 -0.988347 0.152215
vn 0 0.221141 0.975242
vn 0.331351 0.286268 0.899031
vn 0.397153 -0.898612 0.186456
vn 0.412827 0.891814 -0.185045
vn 0 0.988347 -0.152216
vn -0.406234 0.894712 -0.185646
vn 0.331351 -0.286268 -0.899031
vn 0 -0.221141 -0.975242
vn -0.325682 -0.286866 -0.90091
vn -0.828588 -0.00453498 -0.559841
vn -0.815736 -0.175499 -0.551158
vn -0.848566 -0.518056 0.107493
vn -0.83167 -0.55527 0
vn -0.85606 0.516876 0
vn -0.870428 0.482029 -0.100018
vn 0.848566 -0.518056 0.107493
vn 0.815736 -0.175499 -0.551158
vn 0.828588 -0.00453498 -0.559841
vn 0.870428 0.482029 -0.100018
vn 0.85606 0.516876 0
vn 0.876795 0.145898 0.458197
vn 0.851684 0.00424498 0.524039
vn -0.851684 0.00424498 0.524039
vn -0.876795 0.145898 0.458197
vn 0 0.786035 -0.618183
vn 0.999992 -0.00351468 -0.00177497
vn 0.999998 -5.61317e-006 -0.00175514
vn 3.60712e-005 0.858301 -0.513147
vn 0.415791 0.0685425 0.906874
vn 0.422766 -0.0682942 -0.903662
vn 0.433312 -0.414351 -0.800346
vn 0.425568 0.410701 0.80636
vn -0.422941 0.0682936 0.90358
vn -0.433167 0.409062 0.80314
vn -0.430544 -0.414882 -0.801564
vn -0.419808 -0.0683977 -0.905032
vn 0.43418 -0.238807 0.868596
vn 0.436092 0.19674 -0.878133
vn -0.439608 -0.238107 0.866054
vn -0.432063 0.196516 -0.880172
vn 0.335613 -0.617034 0.711782
vn 0.28371 0.458685 -0.842091
vn -0.337345 -0.616627 0.711316
vn -0.272117 0.457612 -0.846489
vn 0.00451238 -0.175284 -0.984508
vn -4.86979e-005 -0.165516 -0.986207
vn -5.05245e-005 -0.194832 -0.980837
vn 0.00452849 -0.185102 -0.982709
#94 normals
vt 0 1 0
vt 0 0 0
vt 1 0 0
vt 1 1 0
vt 0 1 0
vt 0 0 0
vt 1 0 0
vt 1 1 0
vt 0 1 0
vt 0 0 0
vt 1 0 0
vt 1 1 0
vt 0 1 0
vt 0 0 0
vt 1 0 0
vt 1 1 0
vt 0 1 0
vt 0 0 0
vt 1 0 0
vt 1 1 0
vt 0 1 0
vt 0 0 0
vt 1 0 0
vt 1 1 0
vt 0 1 0
vt 0 0 0
vt 1 0 0
vt 1 1 0
vt 0 1 0
vt 0 0 0
vt 1 0 0
vt 1 1 0
vt 0 1 0
vt 0 0 0
vt 1 0 0
vt 1 1 0
vt 0 1 0
vt 0 0 0
vt 1 0 0
vt 1 1 0
vt 0 1 0
vt 0 0 0
vt 1 0 0
vt 1 1 0
vt 0 1 0
vt 0 0 0
vt 1 0 0
vt 1 1 0
vt 0 1 0
vt 0 0 0
vt 1 0 0
vt 1 1 0
vt 0 1 0
vt 0 0 0
vt 1 0 0
vt 1 1 0
vt 0 1 0
vt 0 0 0
vt 1 0 0
vt 1 1 0
vt 0 1 0
vt 0 0 0
vt 1 0 0
vt 1 1 0
vt 0 1 0
vt 0 0 0
vt 1 0 0
vt 1 1 0
vt 0 1 0
vt 0 0 0
vt 1 0 0
vt 1 1 0
vt 0 1 0
vt 0 0 0
vt 1 0 0
vt 1 1 0
vt 0 1 0
vt 0 0 0
vt 1 0 0
vt 1 1 0
vt 0 1 0
vt 0 0 0
vt 1 0 0
vt 1 1 0
vt 0 1 0
vt 0 0 0
vt 1 0 0
vt 1 1 0
vt 0 1 0
vt 0 0 0
vt 1 0 0
vt 1 1 0
vt 0 1 0
vt 0 0 0
vt 1 0 0
vt 1 1 0
vt 0 1 0
vt 0 0 0
vt 1 0 0
vt 1 1 0
vt 0 1 0
vt 0 0 0
vt 1 0 0
vt 1 1 0
vt 0 1 0
vt 0 0 0
vt 1 0 0
vt 1 1 0
vt 0 1 0
vt 0 0 0
vt 1 0 0
vt 1 1 0
vt 0 1 0
vt 0 0 0
vt 1 0 0
vt 1 1 0
vt 0 1 0
vt 0 0 0
vt 1 0 0
vt 1 1 0
vt 0 1 0
vt 0 0 0
vt 1 0 0
vt 1 1 0
vt 0 1 0
vt 0 0 0
vt 1 0 0
vt 1 1 0
vt 0 1 0
vt 0 0 0
vt 1 0 0
vt 1 1 0
vt 0 1 0
vt 0 0 0
vt 1 0 0
vt 1 1 0
vt 0 1 0
vt 0 0 0
vt 1 0 0
vt 1 1 0
vt 0 1 0
vt 0 0 0
vt 1 0 0
vt 1 1 0
vt 0 1 0
vt 0 0 0
vt 1 0 0
vt 1 1 0
vt 0 1 0
vt 0 0 0
vt 1 0 0
vt 1 1 0
vt 0 1 0
vt 0 0 0
vt 1 0 0
vt 1 1 0
vt 0 1 0
vt 0 0 0
vt 1 0 0
vt 1 1 0
vt 0 1 0
vt 0 0 0
vt 1 0 0
vt 1 1 0
vt 0 1 0
vt 0 0 0
vt 1 0 0
vt 1 1 0
vt 0 1 0
vt 0 0 0
vt 1 0 0
vt 1 1 0
vt 0 1 0
vt 0 0 0
vt 1 0 0
vt 1 1 0
vt 0 1 0
vt 0 0 0
vt 1 0 0
vt 1 1 0
vt 0 1 0
vt 0 0 0
vt 1 0 0
vt 1 1 0
vt 0 1 0
vt 0 0 0
vt 1 0 0
vt 1 1 0
vt 0 1 0
vt 0 0 0
vt 1 0 0
vt 1 1 0
vt 0 1 0
vt 0 0 0
vt 1 0 0
vt 1 1 0
vt 0 1 0
vt 0 0 0
vt 1 0 0
vt 1 1 0
vt 0 1 0
vt 0 0 0
vt 1 0 0
vt 1 1 0
vt 0 1 0
vt 0 0 0
vt 1 0 0
vt 1 1 0
vt 0 1 0
vt 0 0 0
vt 1 0 0
vt 1 1 0
vt 0 1 0
vt 0 0 0
vt 1 0 0
vt 1 1 0
vt 0 1 0
vt 0 0 0
vt 1 0 0
vt 1 1 0
vt 0 1 0
vt 0 0 0
vt 1 0 0
vt 1 1 0
vt 0 1 0
vt 0 0 0
vt 1 0 0
vt 1 1 0
vt 0 1 0
vt 0 0 0
vt 1 0 0
vt 1 1 0
vt 0 1 0
vt 0 0 0
vt 1 0 0
vt 1 1 0
vt 0 1 0
vt 0 0 0
vt 1 0 0
vt 1 1 0
vt 0 1 0
vt 0 0 0
vt 1 0 0
vt 1 1 0
vt 0 1 0
vt 0 0 0
vt 1 0 0
vt 1 1 0
vt 0 1 0
vt 0 0 0
vt 1 0 0
vt 1 1 0
vt 0 1 0
vt 0 0 0
vt 1 0 0
vt 1 1 0
vt 0 1 0
vt 0 0 0
vt 1 0 0
vt 1 1 0
vt 0 1 0
vt 0 0 0
vt 1 0 0
vt 1 1 0
vt 0 1 0
vt 0 0 0
vt 1 0 0
vt 1 1 0
vt 0 1 0
vt 0 0 0
vt 1 0 0
vt 1 1 0
vt 0 1 0
vt 0 0 0
vt 1 0 0
vt 1 1 0
usemtl Group2
f 1/1/1 2/2/1 3/3/1 1/4/1
usemtl Group2
f 4/5/2 5/6/3 6/7/2 4/8/2
usemtl Group0
f 7/9/4 8/10/4 9/11/5 7/12/4
usemtl Group0
f 10/13/4 9/14/5 8/15/4 10/16/4
usemtl Group0
f 11/17/1 12/18/1 13/19/1 11/20/1
usemtl Group0
f 13/21/1 12/22/1 14/23/1 13/24/1
usemtl Group1
f 15/25/6 16/26/6 17/27/6 15/28/6
usemtl Group1
f 18/29/7 19/30/8 20/31/7 18/32/7
usemtl Group0
f 21/33/4 22/34/4 23/35/9 21/36/4
usemtl Group0
f 22/37/4 24/38/4 23/39/9 22/40/4
usemtl Group0
f 25/41/1 26/42/1 27/43/1 25/44/1
usemtl Group0
f 27/45/1 26/46/1 28/47/1 27/48/1
usemtl Group2
f 1/49/1 3/50/1 29/51/1 30/52/1
usemtl Group2
f 5/53/10 31/54/11 29/55/11 3/56/10
usemtl Group2
f 5/57/10 3/58/10 2/59/12 6/60/12
usemtl Group2
f 32/61/13 31/62/14 5/63/3 4/64/3
usemtl Group1
f 33/65/15 9/66/5 10/67/16 34/68/16
usemtl Group1
f 33/69/15 35/70/17 7/71/17 9/72/5
usemtl Group1
f 35/73/17 36/74/18 8/75/18 7/76/17
usemtl Group1
f 36/77/18 34/78/16 10/79/16 8/80/18
usemtl Group2
f 37/81/19 38/82/20 36/83/21 35/84/22
usemtl Group2
f 38/85/20 39/86/23 34/87/24 36/88/21
usemtl Group2
f 40/89/25 41/90/26 38/91/20 37/92/19
usemtl Group2
f 41/93/26 42/94/27 39/95/23 38/96/20
usemtl Group1
f 40/97/28 14/98/29 12/99/30 41/100/30
usemtl Group1
f 41/101/30 12/102/30 11/103/31 42/104/32
usemtl Group1
f 43/105/33 42/106/32 11/107/31 13/108/33
usemtl Group1
f 43/109/33 13/110/33 14/111/29 40/112/28
usemtl Group2
f 43/113/34 40/114/25 37/115/19 44/116/35
usemtl Group2
f 44/117/35 37/118/19 35/119/22 33/120/36
usemtl Group0
f 45/121/1 46/122/1 47/123/1 48/124/1
usemtl Group0
f 47/125/1 46/126/1 49/127/37 50/128/38
usemtl Group0
f 51/129/39 52/130/40 50/131/41 49/132/20
usemtl Group0
f 51/133/42 49/134/42 46/135/43 53/136/43
usemtl Group2
f 54/137/44 55/138/45 56/139/46 57/140/47
usemtl Group2
f 58/141/48 57/142/47 56/143/46 59/144/49
usemtl Group2
f 60/145/50 61/146/51 57/147/47 58/148/48
usemtl Group2
f 54/149/44 57/150/47 61/151/51 62/152/52
usemtl Group2
f 63/153/53 64/154/54 61/155/51 60/156/50
usemtl Group2
f 65/157/55 62/158/52 61/159/51 64/160/54
usemtl Group2
f 55/161/45 65/162/55 64/163/54 56/164/46
usemtl Group2
f 63/165/53 59/166/49 56/167/46 64/168/54
usemtl Group1
f 25/169/56 54/170/57 62/171/58 26/172/59
usemtl Group1
f 25/173/56 27/174/60 55/175/61 54/176/57
usemtl Group1
f 60/177/62 58/178/63 21/179/64 23/180/9
usemtl Group1
f 58/181/63 59/182/65 22/183/66 21/184/64
usemtl Group1
f 63/185/67 60/186/62 23/187/9 24/188/68
usemtl Group1
f 28/189/69 26/190/59 62/191/58 65/192/70
usemtl Group1
f 27/193/60 28/194/69 65/195/70 55/196/61
usemtl Group1
f 63/197/67 24/198/68 22/199/66 59/200/65
usemtl Group0
f 66/201/20 67/202/20 68/203/20 69/204/20
usemtl Group0
f 53/205/43 46/206/43 67/207/71 66/208/71
usemtl Group0
f 45/209/1 68/210/1 67/211/1 46/212/1
usemtl Group0
f 53/213/4 66/214/4 69/215/4 70/216/4
usemtl Group0
f 71/217/4 72/218/4 53/219/4 70/220/4
usemtl Group0
f 51/221/72 53/222/4 72/223/4 52/224/73
usemtl Group2
f 73/225/74 74/226/74 75/227/74 76/228/74
usemtl Group2
f 77/229/75 78/230/76 75/231/77 74/232/78
usemtl Group2
f 79/233/79 77/234/75 74/235/78 73/236/80
usemtl Group2
f 79/237/79 73/238/80 76/239/81 80/240/82
usemtl Group1
f 81/241/83 82/242/84 78/243/76 77/244/75
usemtl Group1
f 83/245/85 81/246/83 77/247/75 79/248/79
usemtl Group1
f 83/249/85 79/250/79 80/251/82 84/252/86
usemtl Group2
f 85/253/87 86/254/88 82/255/84 81/256/83
usemtl Group2
f 87/257/89 85/258/87 81/259/83 83/260/85
usemtl Group2
f 87/261/89 83/262/85 84/263/86 88/264/90
usemtl Group2
f 87/265/91 88/266/92 86/267/93 85/268/94
usemtl Group0
f 89/269/38 90/270/38 91/271/1 92/272/1
usemtl Group0
f 71/273/4 93/274/4 94/275/4 72/276/4
#69 faces
